<svg width="356" height="421" viewBox="0 0 356 421" fill="none" xmlns="http://www.w3.org/2000/svg">
<path d="M178.78 0.210103C186.49 -0.0798967 190.89 4.5901 195.54 9.4801C246.293 62.9001 297.16 116.207 348.14 169.4C358.23 179.87 356.64 188.16 346.59 196.25C335.65 205.05 335.28 212.99 346.53 221.85C360.01 232.47 356.29 242.24 345.31 252.85C292.7 303.6 243.83 358 193.65 411.11C182.72 422.68 175.99 424.9 163.8 411.86C118.8 363.7 71.61 317.55 27.69 268.31C23.77 263.91 18.8 260.43 14.28 256.58C-3.47003 241.48 -4.45003 236.17 11.05 219.23C18.59 210.99 18.28 205.29 10.29 198.63C-3.59002 187.07 -1.00003 178 11.39 165.4C56 120.09 99 73.2401 142.9 27.2301C153.31 16.3201 162.32 3.0701 178.78 0.210103ZM179.64 353.51C185.25 352.66 189.26 348.02 193.29 343.75C207.99 328.19 222.29 312.29 237.04 296.75C268.94 263.09 300.72 229.31 333.14 196.15C343.31 185.75 343.26 178.42 332.61 168.27C311.96 148.59 292.45 127.73 273.27 106.53C245.35 75.6501 215.79 46.2501 187 16.1501C181.21 10.0901 176.67 8.0101 169.53 15.5901C119.77 68.3834 69.73 120.923 19.41 173.21C13.98 178.88 12.58 183.94 18.41 190.09C68.3433 242.757 118.237 295.423 168.09 348.09C171 351.2 174.15 353.92 179.64 353.51V353.51Z" fill="white"/>
<path d="M301.83 182.25C302.04 188.96 297.56 193.16 293.46 197.43C263.833 228.277 234.167 259.087 204.46 289.86C176.46 318.62 176.6 318.29 148.78 288.61C121.54 259.61 93.6999 231.09 66.2399 202.25C48.8699 184 49.7299 181.3 67.2399 163.43C99.7799 130.33 131.8 96.7301 163.3 62.6301C174.3 50.7601 180.86 49.9001 192.69 63.0701C224.86 98.9101 259 133 292.41 167.66C296.53 172 301.4 175.63 301.83 182.25ZM178.94 245.18C180.48 244.18 183.3 242.93 185.24 240.87C201.08 224.003 216.847 207.047 232.54 190C238.69 183.34 234.8 178.33 229.9 173.18C215.99 158.52 200.67 145.18 188.24 129.09C181.83 120.77 174.88 121.52 167.49 129.6C154.27 144.04 140.49 157.96 126.38 171.6C118.93 178.8 117.82 184.51 125.57 192.5C140.47 207.84 154.57 223.97 168.94 239.8C171.35 242.41 173.59 245.25 178.94 245.18Z" fill="white"/>
</svg>
